<svg width="40" height="40" viewBox="0 0 40 40" fill="none" xmlns="http://www.w3.org/2000/svg">
<path opacity="0.99" d="M20 2C17.6362 2 15.2956 2.46558 13.1117 3.37017C10.9278 4.27475 8.94353 5.60062 7.27208 7.27208C3.89642 10.6477 2 15.2261 2 20C2 27.956 7.166 34.706 14.312 37.1C15.212 37.244 15.5 36.686 15.5 36.2V33.158C10.514 34.238 9.452 30.746 9.452 30.746C8.624 28.658 7.454 28.1 7.454 28.1C5.816 26.984 7.58 27.02 7.58 27.02C9.38 27.146 10.334 28.874 10.334 28.874C11.9 31.61 14.546 30.8 15.572 30.368C15.734 29.198 16.202 28.406 16.706 27.956C12.71 27.506 8.516 25.958 8.516 19.1C8.516 17.102 9.2 15.5 10.37 14.222C10.19 13.772 9.56 11.9 10.55 9.47C10.55 9.47 12.062 8.984 15.5 11.306C16.922 10.91 18.47 10.712 20 10.712C21.53 10.712 23.078 10.91 24.5 11.306C27.938 8.984 29.45 9.47 29.45 9.47C30.44 11.9 29.81 13.772 29.63 14.222C30.8 15.5 31.484 17.102 31.484 19.1C31.484 25.976 27.272 27.488 23.258 27.938C23.906 28.496 24.5 29.594 24.5 31.268V36.2C24.5 36.686 24.788 37.262 25.706 37.1C32.852 34.688 38 27.956 38 20C38 17.6362 37.5344 15.2956 36.6298 13.1117C35.7252 10.9278 34.3994 8.94353 32.7279 7.27208C31.0565 5.60062 29.0722 4.27475 26.8883 3.37017C24.7044 2.46558 22.3638 2 20 2Z" fill="#999999"/>
</svg>
