<svg width="600" height="672" viewBox="0 0 600 672" fill="none" xmlns="http://www.w3.org/2000/svg">
<g filter="url(#filter0_di_4049_377)">
<path d="M536.717 144.113C534.348 140.969 531.817 137.951 529.133 135.071C531.832 127.88 533.882 120.461 535.258 112.904C539.322 85.2599 535.793 57.0311 525.05 31.2376C525.05 31.2376 492.383 21.0292 417.425 71.4876C385.602 62.7008 352.731 58.2853 319.717 58.3626C286.608 58.3045 253.643 62.7194 221.717 71.4876C146.758 20.4459 114.092 31.2376 114.092 31.2376C103.477 56.7579 99.9504 84.6708 103.883 112.029C105.267 119.9 107.416 127.617 110.3 135.071C107.675 137.988 105.05 141.196 102.717 144.113C80.952 171.413 69.3987 205.454 70.05 240.363C69.9808 248.642 70.3703 256.918 71.2167 265.154C80.55 394.363 166.592 424.404 248.55 433.738C236.95 444.525 229.084 458.724 226.092 474.279C223.381 484.653 222.105 495.35 222.3 506.071V544.279C189.663 547.196 156.179 542.442 145.796 513.333C134.65 485.473 116.165 461.151 92.3042 442.954C90.5603 442.01 88.9013 440.917 87.3458 439.688C85.2506 434.181 81.5385 429.437 76.6973 426.08C71.8561 422.722 66.1123 420.908 60.2208 420.875H60.075C52.3647 420.875 44.9681 423.928 39.5024 429.366C34.0368 434.804 30.9469 442.186 30.9083 449.896C30.8208 473.579 54.5333 488.892 64.2458 494.083C75.5932 505.518 84.7213 518.957 91.1667 533.721C101.783 563.558 132.846 608.913 221.425 603.021L221.483 605.879L221.6 613.696C221.6 621.431 224.673 628.85 230.143 634.32C235.613 639.79 243.031 642.863 250.767 642.863H388.258C395.994 642.863 403.412 639.79 408.882 634.32C414.352 628.85 417.425 621.431 417.425 613.696C417.425 613.696 417.658 521.529 417.658 506.071C417.853 495.35 416.577 484.654 413.867 474.279L413.808 474.104L413.925 474.279C413.663 473.258 413.283 472.442 412.992 471.45C409.742 456.999 402.222 443.86 391.408 433.738L391.758 434.35L391.175 433.767C473.133 424.433 558.592 393.808 567.925 265.183C568.771 256.947 569.161 248.671 569.092 240.392C569.609 205.552 558.184 171.557 536.717 144.113Z" fill="url(#paint0_linear_4049_377)" shape-rendering="crispEdges"/>
</g>
<defs>
<filter id="filter0_di_4049_377" x="0.908081" y="0.284424" width="598.2" height="672.578" filterUnits="userSpaceOnUse" color-interpolation-filters="sRGB">
<feFlood flood-opacity="0" result="BackgroundImageFix"/>
<feColorMatrix in="SourceAlpha" type="matrix" values="0 0 0 0 0 0 0 0 0 0 0 0 0 0 0 0 0 0 127 0" result="hardAlpha"/>
<feOffset/>
<feGaussianBlur stdDeviation="15"/>
<feComposite in2="hardAlpha" operator="out"/>
<feColorMatrix type="matrix" values="0 0 0 0 1 0 0 0 0 1 0 0 0 0 1 0 0 0 0.3 0"/>
<feBlend mode="normal" in2="BackgroundImageFix" result="effect1_dropShadow_4049_377"/>
<feBlend mode="normal" in="SourceGraphic" in2="effect1_dropShadow_4049_377" result="shape"/>
<feColorMatrix in="SourceAlpha" type="matrix" values="0 0 0 0 0 0 0 0 0 0 0 0 0 0 0 0 0 0 127 0" result="hardAlpha"/>
<feOffset/>
<feGaussianBlur stdDeviation="50"/>
<feComposite in2="hardAlpha" operator="arithmetic" k2="-1" k3="1"/>
<feColorMatrix type="matrix" values="0 0 0 0 1 0 0 0 0 1 0 0 0 0 1 0 0 0 0.25 0"/>
<feBlend mode="normal" in2="shape" result="effect2_innerShadow_4049_377"/>
</filter>
<linearGradient id="paint0_linear_4049_377" x1="300.008" y1="30.2844" x2="292" y2="652.5" gradientUnits="userSpaceOnUse">
<stop stop-color="white" stop-opacity="0.15"/>
<stop offset="0.0001" stop-color="white" stop-opacity="0.15"/>
<stop offset="1" stop-color="white" stop-opacity="0"/>
</linearGradient>
</defs>
</svg>
