<svg width="550" height="191" viewBox="0 0 550 191" fill="none" xmlns="http://www.w3.org/2000/svg">
<g filter="url(#filter0_di_4049_380)">
<path d="M152.351 47.08V81.28C146.991 83.04 141.911 84.32 137.111 85.12C132.311 85.92 128.271 86.32 124.991 86.32C114.111 86.32 105.591 83.48 99.4306 77.8C93.2706 72.12 90.1906 63.4 90.1906 51.64C90.1906 39.64 93.4306 30.68 99.9106 24.76C106.391 18.76 115.511 15.76 127.271 15.76C133.431 15.76 140.831 16.68 149.471 18.52C149.471 20.12 149.311 22.52 148.991 25.72C148.671 28.84 148.351 31.04 148.031 32.32L143.711 32.2C138.431 32.04 134.311 31.96 131.351 31.96C122.471 31.96 117.631 32.48 116.831 33.52C115.551 35.04 114.631 37.4 114.071 40.6C113.591 43.8 113.351 46.88 113.351 49.84C113.351 55.2 113.951 59.36 115.151 62.32C116.351 65.28 118.191 67.36 120.671 68.56C123.151 69.76 126.511 70.36 130.751 70.36H131.231V47.08H152.351ZM175.752 22.96C173.032 22.96 170.672 22.04 168.672 20.2C166.752 18.36 165.792 16.16 165.792 13.6C165.792 11.04 166.752 8.84 168.672 7C170.672 5.16 173.032 4.24 175.752 4.24C178.472 4.24 180.792 5.16 182.712 7C184.632 8.84 185.592 11.04 185.592 13.6C185.592 16.16 184.632 18.36 182.712 20.2C180.792 22.04 178.472 22.96 175.752 22.96ZM165.432 29.8H185.952V85H165.432V29.8ZM225.166 62.32C225.166 63.76 225.206 65.28 225.286 66.88C225.366 68.4 225.606 69.36 226.006 69.76C226.566 70.32 228.526 70.6 231.886 70.6L235.966 70.48C236.686 74.32 237.046 78.76 237.046 83.8C235.526 84.36 233.286 84.88 230.326 85.36C227.446 85.84 224.686 86.08 222.046 86.08C216.526 86.08 212.246 84.88 209.206 82.48C206.246 80 204.766 76.2 204.766 71.08V41.56H195.766V30.64L204.766 29.8L210.166 16.6L225.166 15.76V29.8H237.886V41.56H225.166V62.32ZM248.823 16.6H270.543V41.68H289.143V16.6H310.863V85H289.143V55.48H270.543V85H248.823V16.6ZM380.72 29.8V85H364.04L361.76 75.76C356 82.72 349.12 86.2 341.12 86.2C338.24 86.2 335.52 85.8 332.96 85C330.48 84.2 328.6 83.04 327.32 81.52C326.6 80.64 326.04 78.44 325.64 74.92C325.32 71.4 325.16 66.04 325.16 58.84V29.8H345.68V58.6C345.68 60.2 345.72 62.08 345.8 64.24C345.88 66.4 346.12 67.76 346.52 68.32C347.08 69.12 348.68 69.52 351.32 69.52L353.24 69.4C355.48 69.32 357.8 68.8 360.2 67.84V29.8H380.72ZM431.239 28.6C437.479 28.6 442.279 30.48 445.639 34.24C449.079 38 450.799 44.64 450.799 54.16C450.799 61.12 450.079 67.08 448.639 72.04C447.279 76.92 445.719 80.04 443.959 81.4C441.879 83.08 438.799 84.32 434.719 85.12C430.639 85.92 425.999 86.32 420.799 86.32C416.799 86.32 412.319 86 407.359 85.36C402.399 84.8 397.959 83.88 394.039 82.6V13L414.799 12.16V23.44C414.799 24.08 414.759 25.56 414.679 27.88C414.679 30.2 414.599 32.16 414.439 33.76C414.279 35.28 414.039 36.44 413.719 37.24L414.439 38.08C416.279 35.28 418.599 33 421.399 31.24C424.199 29.48 427.479 28.6 431.239 28.6ZM427.879 71.92C428.359 71.12 428.759 69.24 429.079 66.28C429.479 63.32 429.679 60.48 429.679 57.76C429.679 54.56 429.519 52.04 429.199 50.2C428.959 48.36 428.279 46.92 427.159 45.88C426.119 44.76 424.479 44.2 422.239 44.2C420.239 44.2 417.679 44.48 414.559 45.04V72.16C417.519 72.64 420.599 72.88 423.799 72.88C426.119 72.88 427.479 72.56 427.879 71.92ZM48.7227 148.88C54.1627 149.52 58.0427 151.36 60.3627 154.4C62.6827 157.36 63.8427 160.96 63.8427 165.2C63.8427 167.84 63.4427 170.36 62.6427 172.76C61.8427 175.08 60.8827 177.08 59.7627 178.76C58.6427 180.36 57.6827 181.4 56.8827 181.88C53.6827 183.96 43.9227 185 27.6027 185H4.32266V116.6H32.5227C38.9227 116.6 44.0827 116.96 48.0027 117.68C52.0027 118.32 55.2427 119.84 57.7227 122.24C60.2027 124.56 61.4427 128.12 61.4427 132.92C61.4427 137.08 60.4027 140.44 58.3227 143C56.3227 145.56 53.1227 147.32 48.7227 148.28V148.88ZM39.1227 131.12C38.3227 130.32 37.3627 129.84 36.2427 129.68C35.2027 129.44 33.5227 129.32 31.2027 129.32C28.8827 129.32 27.1227 129.36 25.9227 129.44V144.08H27.1227C27.5227 144.08 29.2027 144.08 32.1627 144.08C35.1227 144.08 37.0827 143.88 38.0427 143.48C38.7627 143.16 39.4027 142.32 39.9627 140.96C40.6027 139.6 40.9227 138.12 40.9227 136.52C40.9227 134.12 40.3227 132.32 39.1227 131.12ZM41.1627 171.2C41.7227 170.72 42.1627 169.84 42.4827 168.56C42.8827 167.2 43.0827 165.84 43.0827 164.48C43.0827 162.8 42.8427 161.24 42.3627 159.8C41.9627 158.28 41.4027 157.2 40.6827 156.56C39.9627 155.84 38.9227 155.36 37.5627 155.12C36.2827 154.88 34.0827 154.76 30.9627 154.76C28.9627 154.76 27.2827 154.8 25.9227 154.88V172.28C29.6827 172.36 33.0427 172.32 36.0027 172.16C38.9627 171.92 40.6827 171.6 41.1627 171.2ZM108.877 170.6C110.877 170.6 114.597 170.4 120.037 170C120.757 170 122.077 169.92 123.997 169.76L125.797 182.12C119.637 185 111.637 186.44 101.797 186.44C92.5974 186.44 85.5174 184.12 80.5574 179.48C75.6774 174.84 73.2374 167.84 73.2374 158.48C73.2374 153.68 73.8374 149.04 75.0374 144.56C76.3174 140.08 77.7574 136.96 79.3574 135.2C81.0374 133.44 84.1574 131.92 88.7174 130.64C93.2774 129.36 97.7974 128.72 102.277 128.72C109.477 128.72 114.877 130 118.477 132.56C122.077 135.12 124.437 138.68 125.557 143.24C126.677 147.72 127.237 153.76 127.237 161.36C121.797 161.68 116.477 161.84 111.277 161.84H94.2374C94.2374 164.4 94.7574 166.32 95.7974 167.6C96.9174 168.88 98.4774 169.72 100.477 170.12C102.477 170.44 105.277 170.6 108.877 170.6ZM95.4374 143C94.9574 143.24 94.5974 144.28 94.3574 146.12C94.1174 147.96 93.9574 150.04 93.8774 152.36H100.117C103.877 152.36 106.597 152.32 108.277 152.24C108.277 148.4 107.717 145.68 106.597 144.08C105.557 142.48 103.717 141.68 101.077 141.68C98.9174 141.68 97.0374 142.12 95.4374 143ZM191.46 133.28C192.18 134.16 192.7 136.36 193.02 139.88C193.42 143.4 193.62 148.76 193.62 155.96V185H173.1V156.2C173.1 155.88 173.1 154.32 173.1 151.52C173.1 148.64 172.9 146.88 172.5 146.24C172.26 145.92 171.66 145.68 170.7 145.52C169.82 145.36 168.78 145.28 167.58 145.28L165.54 145.4C163.3 145.48 160.98 146 158.58 146.96V185H138.06V113L158.58 112.16V126.2C158.58 131.96 158.38 135.8 157.98 137.72L158.1 137.84C163.54 131.68 170.06 128.6 177.66 128.6C180.54 128.6 183.22 129 185.7 129.8C188.26 130.6 190.18 131.76 191.46 133.28ZM239.579 185L237.659 177.44C233.979 183.44 228.859 186.44 222.299 186.44C216.939 186.44 212.539 184.96 209.099 182C205.739 178.96 204.059 174.72 204.059 169.28C204.059 165.92 205.019 163 206.939 160.52C208.939 157.96 211.659 156.16 215.099 155.12C219.579 153.84 226.499 153.12 235.859 152.96C235.859 147.68 235.619 144.88 235.139 144.56C234.739 144.24 233.459 144.08 231.299 144.08C229.939 144.08 228.059 144.16 225.659 144.32C221.819 144.48 216.619 144.92 210.059 145.64C209.419 141.32 208.939 136.68 208.619 131.72C212.859 130.84 217.299 130.12 221.939 129.56C226.579 128.92 230.739 128.6 234.419 128.6C240.819 128.6 245.619 129.68 248.819 131.84C252.019 133.92 254.099 136.68 255.059 140.12C256.019 143.56 256.459 147.92 256.379 153.2L256.259 170.84L256.619 185H239.579ZM229.259 173C231.339 173 233.539 172.6 235.859 171.8V162.92H234.899C228.979 162.92 225.699 163.24 225.059 163.88C224.659 164.28 224.339 164.88 224.099 165.68C223.939 166.48 223.859 167.24 223.859 167.96C223.859 169.88 224.299 171.2 225.179 171.92C226.059 172.64 227.419 173 229.259 173ZM304.764 129.8H326.244L309.444 185H281.004L264.204 129.8H285.684L294.684 172.16H295.884L304.764 129.8ZM345.282 122.96C342.562 122.96 340.202 122.04 338.202 120.2C336.282 118.36 335.322 116.16 335.322 113.6C335.322 111.04 336.282 108.84 338.202 107C340.202 105.16 342.562 104.24 345.282 104.24C348.002 104.24 350.322 105.16 352.242 107C354.162 108.84 355.122 111.04 355.122 113.6C355.122 116.16 354.162 118.36 352.242 120.2C350.322 122.04 348.002 122.96 345.282 122.96ZM334.962 129.8H355.482V185H334.962V129.8ZM395.897 186.56C386.297 186.56 379.097 184.32 374.297 179.84C369.577 175.28 367.217 168.12 367.217 158.36C367.217 153 367.697 148.32 368.657 144.32C369.697 140.24 370.937 137.4 372.377 135.8C374.217 133.72 377.577 132 382.457 130.64C387.417 129.28 392.057 128.6 396.377 128.6C406.697 128.6 414.057 130.8 418.457 135.2C422.857 139.6 425.057 146.64 425.057 156.32C425.057 166.72 422.697 174.36 417.977 179.24C413.257 184.12 405.897 186.56 395.897 186.56ZM396.257 172.52C399.377 172.52 401.417 171.44 402.377 169.28C403.337 167.04 403.817 163.12 403.817 157.52C403.817 153.6 403.617 150.6 403.217 148.52C402.817 146.36 402.057 144.8 400.937 143.84C399.897 142.8 398.257 142.28 396.017 142.28C392.817 142.28 390.977 142.56 390.497 143.12C389.857 143.68 389.337 145.44 388.937 148.4C388.537 151.36 388.337 154.44 388.337 157.64C388.337 163.08 388.857 166.92 389.897 169.16C391.017 171.4 393.137 172.52 396.257 172.52ZM491.69 129.8V185H475.01L472.73 175.76C466.97 182.72 460.09 186.2 452.09 186.2C449.21 186.2 446.49 185.8 443.93 185C441.45 184.2 439.57 183.04 438.29 181.52C437.57 180.64 437.01 178.44 436.61 174.92C436.29 171.4 436.13 166.04 436.13 158.84V129.8H456.65V158.6C456.65 160.2 456.69 162.08 456.77 164.24C456.85 166.4 457.09 167.76 457.49 168.32C458.05 169.12 459.65 169.52 462.29 169.52L464.21 169.4C466.45 169.32 468.77 168.8 471.17 167.84V129.8H491.69ZM539.329 128.6C540.369 128.6 541.449 128.72 542.569 128.96C543.769 129.2 544.649 129.48 545.209 129.8C545.209 131.56 545.009 134.48 544.609 138.56C544.209 142.56 543.849 145.4 543.529 147.08C542.729 147 541.249 146.96 539.089 146.96C534.049 146.96 529.569 147.24 525.649 147.8V185H505.129V129.8H522.289L524.689 138.68H524.809C527.129 135.64 529.609 133.2 532.249 131.36C534.889 129.52 537.249 128.6 539.329 128.6Z" fill="url(#paint0_linear_4049_380)"/>
</g>
<defs>
<filter id="filter0_di_4049_380" x="0.322632" y="0.23999" width="548.886" height="190.32" filterUnits="userSpaceOnUse" color-interpolation-filters="sRGB">
<feFlood flood-opacity="0" result="BackgroundImageFix"/>
<feColorMatrix in="SourceAlpha" type="matrix" values="0 0 0 0 0 0 0 0 0 0 0 0 0 0 0 0 0 0 127 0" result="hardAlpha"/>
<feOffset/>
<feGaussianBlur stdDeviation="2"/>
<feComposite in2="hardAlpha" operator="out"/>
<feColorMatrix type="matrix" values="0 0 0 0 0.6 0 0 0 0 0.333333 0 0 0 0 1 0 0 0 1 0"/>
<feBlend mode="normal" in2="BackgroundImageFix" result="effect1_dropShadow_4049_380"/>
<feBlend mode="normal" in="SourceGraphic" in2="effect1_dropShadow_4049_380" result="shape"/>
<feColorMatrix in="SourceAlpha" type="matrix" values="0 0 0 0 0 0 0 0 0 0 0 0 0 0 0 0 0 0 127 0" result="hardAlpha"/>
<feOffset/>
<feGaussianBlur stdDeviation="3"/>
<feComposite in2="hardAlpha" operator="arithmetic" k2="-1" k3="1"/>
<feColorMatrix type="matrix" values="0 0 0 0 0.56 0 0 0 0 0 0 0 0 0 1 0 0 0 0.75 0"/>
<feBlend mode="normal" in2="shape" result="effect2_innerShadow_4049_380"/>
</filter>
<linearGradient id="paint0_linear_4049_380" x1="-13" y1="12.0001" x2="583" y2="212" gradientUnits="userSpaceOnUse">
<stop stop-color="#EADDFF"/>
<stop offset="0.15597" stop-color="#A374EF"/>
<stop offset="0.309148" stop-color="#F6BEFF"/>
<stop offset="0.454099" stop-color="#F87BBF"/>
<stop offset="0.609676" stop-color="#FFCFE7"/>
<stop offset="0.743608" stop-color="#FF7981"/>
<stop offset="0.872683" stop-color="#FFC7C2"/>
<stop offset="1" stop-color="#E47F6A"/>
</linearGradient>
</defs>
</svg>
