<svg id="flows._network-logo_" data-name="flows. network-logo " xmlns="http://www.w3.org/2000/svg" xmlns:xlink="http://www.w3.org/1999/xlink" width="1272" height="1172" viewBox="0 0 1400 1172">
  <defs>
    <style>
      .cls-1, .cls-2 {
        fill-rule: evenodd;
      }

      .cls-1 {
        fill: url(#linear-gradient);
      }

      .cls-2 {
        fill: #fff;
      }
    </style>
    <linearGradient id="linear-gradient" x1="1123.374" y1="1002.25" x2="262.499" y2="141.375" gradientUnits="userSpaceOnUse">
      <stop offset="0" stop-color="#b20eec"/>
      <stop offset="1" stop-color="#703bfb"/>
    </linearGradient>
  </defs>
  <path id="logo" class="cls-1" d="M1135.04,587.152c-90.75,2.545-170.556,45.118-222.38,111.49,0,0-1.921,2.194-3.064,3.346a269.525,269.525,0,0,1-410.652,46.52,292.163,292.163,0,0,0,95.24,13.059c90.748-2.545,170.835-45.234,222.659-111.605l0.631-.571,2.063-2.5a269.511,269.511,0,0,1,410.753-46.681A292.092,292.092,0,0,0,1135.04,587.152ZM695,200.259c-152.751,0-283.89,92.477-340.532,224.493A229.428,229.428,0,0,0,281.4,457.5C331.472,275.273,498.31,141.388,696.444,141.388,908.678,141.388,1085.02,295,1120.39,497.1c-22.54-5.808-48.02-7.85-64.14-8.562C1018.88,323.5,871.337,200.259,695,200.259ZM577.737,513.784l2.167,1.675,0.627,0.353c55.113,45.119,129.139,65.436,204.49,50.646a247.129,247.129,0,0,0,76.153-28.5A227.975,227.975,0,0,1,513.682,576c-1.157-.737-3.151-2.191-3.151-2.191-55.113-45.119-128.89-65.391-204.242-50.6a247.092,247.092,0,0,0-76.16,28.506A227.968,227.968,0,0,1,577.737,513.784Zm-74.531,94.188,2.167,1.675L506,610c55.113,45.118,129.139,65.436,204.49,50.646a247.154,247.154,0,0,0,76.153-28.5A227.976,227.976,0,0,1,439.151,670.19C437.993,669.453,436,668,436,668c-55.113-45.119-128.89-65.392-204.242-50.6A247.133,247.133,0,0,0,155.6,645.9,227.967,227.967,0,0,1,503.206,607.972ZM334.049,654.189C371.919,818.546,519.147,941.1,695,941.1c178.523,0,327.533-126.306,362.583-294.431,22.99-10.44,47.22-14.849,65.36-16.667-28.41,210.193-208.517,372.242-426.5,372.242-211.116,0-386.715-152-423.375-352.531C289.752,648.417,313.449,648.225,334.049,654.189Z"/>
</svg>
