<svg width="607" height="480" viewBox="0 0 607 480" fill="none" xmlns="http://www.w3.org/2000/svg">
<g filter="url(#filter0_d_1_24)">
<circle cx="531.5" cy="286.5" r="5.5" fill="#260B50"/>
</g>
<g filter="url(#filter1_i_1_24)">
<circle cx="391" cy="256" r="213" fill="#090317"/>
</g>
<g filter="url(#filter2_i_1_24)">
<circle cx="391" cy="256" r="146" fill="#090317"/>
</g>
<circle cx="391" cy="256" r="145.5" stroke="#3B1376"/>
<g filter="url(#filter3_d_1_24)">
<path d="M506.022 134.915L476.677 126.743C475.969 126.546 475.198 126.689 474.533 127.141C473.868 127.593 473.364 128.317 473.131 129.153L465.23 157.528C464.997 158.364 465.054 159.244 465.39 159.975C465.726 160.705 466.312 161.226 467.019 161.423L496.364 169.595C497.072 169.792 497.843 169.649 498.508 169.197C499.173 168.745 499.677 168.021 499.91 167.185L507.812 138.81C508.044 137.974 507.987 137.094 507.651 136.363C507.315 135.633 506.729 135.112 506.022 134.915ZM479.686 150.003C479.899 150.332 479.982 150.758 479.917 151.186C479.852 151.613 479.643 152.009 479.338 152.284C479.033 152.559 478.655 152.692 478.288 152.654C477.922 152.616 477.596 152.409 477.383 152.079L473.364 145.864C473.239 145.671 473.158 145.443 473.126 145.199C473.095 144.954 473.114 144.699 473.182 144.455C473.25 144.21 473.365 143.982 473.519 143.789C473.673 143.596 473.86 143.443 474.067 143.342L480.719 140.099C481.072 139.927 481.458 139.918 481.791 140.075C482.125 140.231 482.379 140.54 482.499 140.934C482.618 141.327 482.592 141.773 482.427 142.173C482.261 142.573 481.97 142.895 481.617 143.067L476.738 145.445L479.686 150.003ZM493.423 138.668L481.941 159.251C481.84 159.441 481.707 159.609 481.553 159.745C481.398 159.881 481.225 159.982 481.042 160.042C480.859 160.103 480.67 160.122 480.487 160.097C480.304 160.073 480.13 160.007 479.976 159.901C479.821 159.796 479.689 159.655 479.588 159.485C479.486 159.315 479.416 159.121 479.383 158.913C479.35 158.706 479.353 158.489 479.394 158.275C479.434 158.062 479.511 157.856 479.619 157.67L491.1 137.087C491.312 136.721 491.634 136.453 491.996 136.342C492.357 136.23 492.731 136.284 493.035 136.491C493.339 136.698 493.55 137.042 493.623 137.449C493.695 137.856 493.623 138.294 493.423 138.668ZM498.974 152.996L492.322 156.239C491.969 156.411 491.583 156.42 491.25 156.263C490.916 156.107 490.662 155.798 490.542 155.404C490.423 155.01 490.449 154.565 490.615 154.165C490.78 153.765 491.071 153.443 491.424 153.271L496.303 150.893L493.355 146.335C493.25 146.172 493.175 145.984 493.135 145.781C493.096 145.578 493.092 145.364 493.124 145.152C493.157 144.94 493.224 144.734 493.324 144.546C493.423 144.358 493.552 144.19 493.703 144.054C493.854 143.918 494.025 143.815 494.205 143.751C494.385 143.688 494.571 143.665 494.753 143.684C494.934 143.703 495.108 143.764 495.263 143.862C495.418 143.961 495.553 144.096 495.658 144.259L499.677 150.474C499.802 150.667 499.883 150.894 499.915 151.139C499.946 151.384 499.927 151.639 499.859 151.883C499.791 152.128 499.676 152.356 499.522 152.549C499.368 152.742 499.181 152.895 498.974 152.996Z" fill="#53238B"/>
</g>
<g clip-path="url(#clip0_1_24)">
<path fill-rule="evenodd" clip-rule="evenodd" d="M455.371 375.085C454.73 376.714 455.572 378.402 457.257 381.775L459.044 385.354C460.729 388.728 461.571 390.415 463.26 390.881C464.947 391.348 466.822 390.412 470.571 388.54L472.559 387.547C476.307 385.675 478.182 384.739 478.823 383.109C479.464 381.48 478.622 379.792 476.937 376.419L475.15 372.84C473.465 369.466 472.623 367.779 470.934 367.313C469.247 366.846 467.372 367.782 463.623 369.654L462.629 370.15L463.523 371.94L465.014 371.195C465.482 370.961 465.717 370.844 465.928 370.902C466.139 370.961 466.244 371.172 466.455 371.593C466.665 372.015 466.771 372.226 466.691 372.43C466.61 372.634 466.375 372.751 465.907 372.984L464.416 373.729L465.31 375.518L466.801 374.774C467.269 374.54 467.504 374.423 467.715 374.48C467.926 374.54 468.031 374.751 468.242 375.172C468.452 375.593 468.558 375.805 468.478 376.009C468.397 376.212 468.162 376.33 467.695 376.563L467.198 376.811C466.729 377.045 466.495 377.162 466.283 377.105C466.073 377.046 465.967 376.834 465.757 376.413L465.31 375.518L463.819 376.263C463.351 376.497 463.116 376.614 462.905 376.556C462.694 376.497 462.588 376.285 462.378 375.865C462.168 375.444 462.062 375.232 462.142 375.028C462.223 374.825 462.458 374.707 462.925 374.474L464.416 373.729L463.523 371.94L462.032 372.684C461.564 372.918 461.329 373.035 461.118 372.978C460.907 372.919 460.801 372.707 460.591 372.286L460.146 371.394C457.377 372.799 455.921 373.687 455.371 375.085ZM465.003 381.121L465.059 381.233C465.355 381.826 465.901 382.264 466.576 382.451C467.252 382.637 468.002 382.557 468.661 382.228C469.32 381.899 469.834 381.348 470.091 380.696C470.347 380.043 470.325 379.344 470.029 378.751L469.973 378.639C469.869 378.431 469.678 378.278 469.442 378.212C469.205 378.147 468.943 378.175 468.712 378.29L465.482 379.904C465.251 380.019 465.071 380.212 464.981 380.44C464.891 380.668 464.899 380.913 465.003 381.121Z" fill="#5108BD"/>
</g>
<path d="M520.514 296.14C519.57 296.493 518.653 296.611 517.764 296.496C516.882 296.364 516.103 296.028 515.427 295.487C514.75 294.946 514.246 294.231 513.914 293.343C513.577 292.444 513.489 291.574 513.648 290.733C513.803 289.88 514.172 289.121 514.756 288.454C515.35 287.783 516.12 287.271 517.064 286.918C517.94 286.59 518.778 286.482 519.575 286.593C520.38 286.689 521.085 287.015 521.69 287.57L520.424 289.12C519.995 288.794 519.546 288.603 519.077 288.548C518.619 288.489 518.165 288.543 517.716 288.711C517.199 288.905 516.774 289.192 516.442 289.572C516.111 289.952 515.907 290.4 515.83 290.916C515.75 291.42 515.819 291.964 516.038 292.548C516.256 293.133 516.564 293.594 516.959 293.933C517.351 294.261 517.797 294.459 518.297 294.528C518.797 294.598 519.305 294.535 519.822 294.342C520.272 294.174 520.65 293.917 520.956 293.572C521.274 293.222 521.488 292.784 521.598 292.256L523.569 292.594C523.473 293.399 523.157 294.113 522.622 294.736C522.093 295.344 521.391 295.812 520.514 296.14ZM528.961 292.979C528.208 293.261 527.447 293.437 526.679 293.506C525.918 293.56 525.282 293.523 524.773 293.393L524.983 291.489C525.484 291.596 526.047 291.629 526.672 291.587C527.297 291.545 527.891 291.419 528.453 291.209C529.116 290.961 529.56 290.692 529.785 290.403C530.021 290.11 530.082 289.812 529.969 289.508C529.876 289.261 529.706 289.113 529.457 289.065C529.204 289.006 528.902 289.004 528.551 289.058C528.2 289.113 527.812 289.188 527.386 289.283C526.972 289.374 526.545 289.45 526.107 289.511C525.676 289.557 525.264 289.552 524.87 289.494C524.473 289.425 524.114 289.27 523.794 289.031C523.474 288.792 523.217 288.414 523.024 287.897C522.809 287.324 522.787 286.769 522.958 286.231C523.124 285.682 523.457 285.186 523.958 284.742C524.465 284.283 525.123 283.903 525.932 283.6C526.539 283.373 527.177 283.211 527.846 283.115C528.514 283.018 529.097 283.018 529.594 283.114L529.384 285.018C528.86 284.919 528.363 284.907 527.891 284.981C527.426 285.04 526.98 285.149 526.553 285.309C525.912 285.549 525.47 285.823 525.227 286.132C524.995 286.436 524.934 286.735 525.043 287.027C525.144 287.297 525.321 287.461 525.573 287.52C525.826 287.579 526.13 287.587 526.486 287.544C526.841 287.501 527.226 287.434 527.64 287.343C528.062 287.236 528.488 287.16 528.919 287.114C529.35 287.068 529.763 287.074 530.156 287.132C530.556 287.174 530.916 287.315 531.236 287.554C531.556 287.793 531.811 288.165 532 288.671C532.21 289.233 532.225 289.785 532.043 290.327C531.873 290.865 531.528 291.365 531.01 291.828C530.487 292.28 529.804 292.664 528.961 292.979ZM537.637 289.733C536.884 290.015 536.124 290.191 535.355 290.26C534.594 290.314 533.959 290.277 533.449 290.147L533.659 288.243C534.16 288.35 534.723 288.383 535.348 288.341C535.973 288.299 536.567 288.173 537.129 287.963C537.792 287.715 538.236 287.446 538.461 287.157C538.697 286.864 538.759 286.565 538.645 286.262C538.552 286.015 538.382 285.867 538.133 285.819C537.881 285.76 537.579 285.758 537.227 285.812C536.876 285.867 536.488 285.942 536.062 286.037C535.648 286.128 535.222 286.204 534.783 286.265C534.352 286.311 533.94 286.305 533.547 286.248C533.149 286.178 532.791 286.024 532.47 285.785C532.15 285.546 531.894 285.168 531.7 284.651C531.486 284.078 531.464 283.523 531.634 282.985C531.8 282.436 532.134 281.94 532.634 281.496C533.141 281.037 533.8 280.656 534.609 280.354C535.216 280.127 535.853 279.965 536.522 279.869C537.191 279.772 537.773 279.772 538.271 279.868L538.061 281.772C537.537 281.673 537.039 281.661 536.567 281.735C536.102 281.794 535.656 281.903 535.229 282.063C534.588 282.302 534.146 282.577 533.903 282.885C533.671 283.19 533.61 283.488 533.719 283.781C533.82 284.05 533.997 284.215 534.25 284.274C534.502 284.333 534.807 284.341 535.162 284.298C535.517 284.255 535.902 284.188 536.317 284.097C536.738 283.99 537.164 283.914 537.596 283.868C538.027 283.822 538.439 283.828 538.832 283.886C539.232 283.928 539.593 284.069 539.913 284.308C540.233 284.547 540.487 284.919 540.677 285.425C540.887 285.987 540.901 286.539 540.719 287.081C540.549 287.619 540.205 288.119 539.686 288.582C539.163 289.034 538.48 289.418 537.637 289.733Z" fill="#9955FF"/>
<rect x="12" y="138" width="350" height="220" rx="20" fill="#2B2A2A"/>
<path d="M44.662 179L40.486 166.4H42.916L46.642 177.794H45.436L49.306 166.4H51.466L55.228 177.794H54.058L57.874 166.4H60.106L55.93 179H53.446L50.008 168.722H50.656L47.164 179H44.662ZM65.5936 179.126C64.5256 179.126 63.5896 178.916 62.7856 178.496C61.9936 178.064 61.3756 177.476 60.9316 176.732C60.4996 175.988 60.2836 175.142 60.2836 174.194C60.2836 173.234 60.4936 172.388 60.9136 171.656C61.3456 170.912 61.9336 170.33 62.6776 169.91C63.4336 169.49 64.2916 169.28 65.2516 169.28C66.1876 169.28 67.0216 169.484 67.7536 169.892C68.4856 170.3 69.0616 170.876 69.4816 171.62C69.9016 172.364 70.1116 173.24 70.1116 174.248C70.1116 174.344 70.1056 174.452 70.0936 174.572C70.0936 174.692 70.0876 174.806 70.0756 174.914H62.0656V173.42H68.8876L68.0056 173.888C68.0176 173.336 67.9036 172.85 67.6636 172.43C67.4236 172.01 67.0936 171.68 66.6736 171.44C66.2656 171.2 65.7916 171.08 65.2516 171.08C64.6996 171.08 64.2136 171.2 63.7936 171.44C63.3856 171.68 63.0616 172.016 62.8216 172.448C62.5936 172.868 62.4796 173.366 62.4796 173.942V174.302C62.4796 174.878 62.6116 175.388 62.8756 175.832C63.1396 176.276 63.5116 176.618 63.9916 176.858C64.4716 177.098 65.0236 177.218 65.6476 177.218C66.1876 177.218 66.6736 177.134 67.1056 176.966C67.5376 176.798 67.9216 176.534 68.2576 176.174L69.4636 177.56C69.0316 178.064 68.4856 178.454 67.8256 178.73C67.1776 178.994 66.4336 179.126 65.5936 179.126ZM76.7909 179.126C75.7229 179.126 74.7869 178.916 73.9829 178.496C73.1909 178.064 72.5729 177.476 72.1289 176.732C71.6969 175.988 71.4809 175.142 71.4809 174.194C71.4809 173.234 71.6909 172.388 72.1109 171.656C72.5429 170.912 73.1309 170.33 73.8749 169.91C74.6309 169.49 75.4889 169.28 76.4489 169.28C77.3849 169.28 78.2189 169.484 78.9509 169.892C79.6829 170.3 80.2589 170.876 80.6789 171.62C81.0989 172.364 81.3089 173.24 81.3089 174.248C81.3089 174.344 81.3029 174.452 81.2909 174.572C81.2909 174.692 81.2849 174.806 81.2729 174.914H73.2629V173.42H80.0849L79.2029 173.888C79.2149 173.336 79.1009 172.85 78.8609 172.43C78.6209 172.01 78.2909 171.68 77.8709 171.44C77.4629 171.2 76.9889 171.08 76.4489 171.08C75.8969 171.08 75.4109 171.2 74.9909 171.44C74.5829 171.68 74.2589 172.016 74.0189 172.448C73.7909 172.868 73.6769 173.366 73.6769 173.942V174.302C73.6769 174.878 73.8089 175.388 74.0729 175.832C74.3369 176.276 74.7089 176.618 75.1889 176.858C75.6689 177.098 76.2209 177.218 76.8449 177.218C77.3849 177.218 77.8709 177.134 78.3029 176.966C78.7349 176.798 79.1189 176.534 79.4549 176.174L80.6609 177.56C80.2289 178.064 79.6829 178.454 79.0229 178.73C78.3749 178.994 77.6309 179.126 76.7909 179.126ZM85.3061 176.858L85.3601 174.032L90.3821 169.388H93.0821L88.8161 173.672L87.6281 174.662L85.3061 176.858ZM83.4701 179V165.644H85.7201V179H83.4701ZM90.7241 179L87.2141 174.662L88.6361 172.862L93.4601 179H90.7241ZM94.9135 179V165.644H97.1635V179H94.9135ZM100.909 182.618C100.441 182.618 99.9726 182.54 99.5046 182.384C99.0366 182.228 98.6466 182.012 98.3346 181.736L99.2346 180.08C99.4626 180.284 99.7206 180.446 100.009 180.566C100.297 180.686 100.591 180.746 100.891 180.746C101.299 180.746 101.629 180.644 101.881 180.44C102.133 180.236 102.367 179.894 102.583 179.414L103.141 178.154L103.321 177.884L106.957 169.388H109.117L104.617 179.774C104.317 180.494 103.981 181.064 103.609 181.484C103.249 181.904 102.841 182.198 102.385 182.366C101.941 182.534 101.449 182.618 100.909 182.618ZM102.889 179.342L98.5506 169.388H100.891L104.419 177.686L102.889 179.342ZM115.713 179V166.4H120.897C122.013 166.4 122.967 166.58 123.759 166.94C124.563 167.3 125.181 167.816 125.613 168.488C126.045 169.16 126.261 169.958 126.261 170.882C126.261 171.806 126.045 172.604 125.613 173.276C125.181 173.936 124.563 174.446 123.759 174.806C122.967 175.154 122.013 175.328 120.897 175.328H117.009L118.053 174.266V179H115.713ZM123.957 179L120.771 174.428H123.273L126.477 179H123.957ZM118.053 174.518L117.009 173.402H120.789C121.821 173.402 122.595 173.18 123.111 172.736C123.639 172.292 123.903 171.674 123.903 170.882C123.903 170.078 123.639 169.46 123.111 169.028C122.595 168.596 121.821 168.38 120.789 168.38H117.009L118.053 167.228V174.518ZM133.182 179.126C132.114 179.126 131.178 178.916 130.374 178.496C129.582 178.064 128.964 177.476 128.52 176.732C128.088 175.988 127.872 175.142 127.872 174.194C127.872 173.234 128.082 172.388 128.502 171.656C128.934 170.912 129.522 170.33 130.266 169.91C131.022 169.49 131.88 169.28 132.84 169.28C133.776 169.28 134.61 169.484 135.342 169.892C136.074 170.3 136.65 170.876 137.07 171.62C137.49 172.364 137.7 173.24 137.7 174.248C137.7 174.344 137.694 174.452 137.682 174.572C137.682 174.692 137.676 174.806 137.664 174.914H129.654V173.42H136.476L135.594 173.888C135.606 173.336 135.492 172.85 135.252 172.43C135.012 172.01 134.682 171.68 134.262 171.44C133.854 171.2 133.38 171.08 132.84 171.08C132.288 171.08 131.802 171.2 131.382 171.44C130.974 171.68 130.65 172.016 130.41 172.448C130.182 172.868 130.068 173.366 130.068 173.942V174.302C130.068 174.878 130.2 175.388 130.464 175.832C130.728 176.276 131.1 176.618 131.58 176.858C132.06 177.098 132.612 177.218 133.236 177.218C133.776 177.218 134.262 177.134 134.694 176.966C135.126 176.798 135.51 176.534 135.846 176.174L137.052 177.56C136.62 178.064 136.074 178.454 135.414 178.73C134.766 178.994 134.022 179.126 133.182 179.126ZM145.189 179.126C144.409 179.126 143.695 178.946 143.047 178.586C142.411 178.226 141.901 177.686 141.517 176.966C141.145 176.234 140.959 175.31 140.959 174.194C140.959 173.066 141.139 172.142 141.499 171.422C141.871 170.702 142.375 170.168 143.011 169.82C143.647 169.46 144.373 169.28 145.189 169.28C146.137 169.28 146.971 169.484 147.691 169.892C148.423 170.3 148.999 170.87 149.419 171.602C149.851 172.334 150.067 173.198 150.067 174.194C150.067 175.19 149.851 176.06 149.419 176.804C148.999 177.536 148.423 178.106 147.691 178.514C146.971 178.922 146.137 179.126 145.189 179.126ZM139.861 182.492V169.388H142.003V171.656L141.931 174.212L142.111 176.768V182.492H139.861ZM144.937 177.2C145.477 177.2 145.957 177.08 146.377 176.84C146.809 176.6 147.151 176.252 147.403 175.796C147.655 175.34 147.781 174.806 147.781 174.194C147.781 173.57 147.655 173.036 147.403 172.592C147.151 172.136 146.809 171.788 146.377 171.548C145.957 171.308 145.477 171.188 144.937 171.188C144.397 171.188 143.911 171.308 143.479 171.548C143.047 171.788 142.705 172.136 142.453 172.592C142.201 173.036 142.075 173.57 142.075 174.194C142.075 174.806 142.201 175.34 142.453 175.796C142.705 176.252 143.047 176.6 143.479 176.84C143.911 177.08 144.397 177.2 144.937 177.2ZM156.521 179.126C155.537 179.126 154.661 178.916 153.893 178.496C153.125 178.064 152.519 177.476 152.075 176.732C151.631 175.988 151.409 175.142 151.409 174.194C151.409 173.234 151.631 172.388 152.075 171.656C152.519 170.912 153.125 170.33 153.893 169.91C154.661 169.49 155.537 169.28 156.521 169.28C157.517 169.28 158.399 169.49 159.167 169.91C159.947 170.33 160.553 170.906 160.985 171.638C161.429 172.37 161.651 173.222 161.651 174.194C161.651 175.142 161.429 175.988 160.985 176.732C160.553 177.476 159.947 178.064 159.167 178.496C158.399 178.916 157.517 179.126 156.521 179.126ZM156.521 177.2C157.073 177.2 157.565 177.08 157.997 176.84C158.429 176.6 158.765 176.252 159.005 175.796C159.257 175.34 159.383 174.806 159.383 174.194C159.383 173.57 159.257 173.036 159.005 172.592C158.765 172.136 158.429 171.788 157.997 171.548C157.565 171.308 157.079 171.188 156.539 171.188C155.987 171.188 155.495 171.308 155.063 171.548C154.643 171.788 154.307 172.136 154.055 172.592C153.803 173.036 153.677 173.57 153.677 174.194C153.677 174.806 153.803 175.34 154.055 175.796C154.307 176.252 154.643 176.6 155.063 176.84C155.495 177.08 155.981 177.2 156.521 177.2ZM163.802 179V169.388H165.944V172.034L165.692 171.26C165.98 170.612 166.43 170.12 167.042 169.784C167.666 169.448 168.44 169.28 169.364 169.28V171.422C169.268 171.398 169.178 171.386 169.094 171.386C169.01 171.374 168.926 171.368 168.842 171.368C167.99 171.368 167.312 171.62 166.808 172.124C166.304 172.616 166.052 173.354 166.052 174.338V179H163.802ZM175.242 179.126C174.186 179.126 173.37 178.856 172.794 178.316C172.218 177.764 171.93 176.954 171.93 175.886V167.264H174.18V175.832C174.18 176.288 174.294 176.642 174.522 176.894C174.762 177.146 175.092 177.272 175.512 177.272C176.016 177.272 176.436 177.14 176.772 176.876L177.402 178.478C177.138 178.694 176.814 178.856 176.43 178.964C176.046 179.072 175.65 179.126 175.242 179.126ZM170.346 171.26V169.46H176.754V171.26H170.346Z" fill="white"/>
<path d="M44 248C44 245.791 45.7909 244 48 244H60C62.2091 244 64 245.791 64 248V321H44V248Z" fill="url(#paint0_linear_1_24)"/>
<path d="M188 293C188 290.791 189.791 289 192 289H204C206.209 289 208 290.791 208 293V321H188V293Z" fill="url(#paint1_linear_1_24)"/>
<path d="M92 272C92 269.791 93.7909 268 96 268H108C110.209 268 112 269.791 112 272V321H92V272Z" fill="url(#paint2_linear_1_24)"/>
<path d="M236 233C236 230.791 237.791 229 240 229H252C254.209 229 256 230.791 256 233V321H236V233Z" fill="url(#paint3_linear_1_24)"/>
<path d="M140 220C140 217.791 141.791 216 144 216H156C158.209 216 160 217.791 160 220V321H140V220Z" fill="url(#paint4_linear_1_24)"/>
<path d="M284 262C284 259.791 285.791 258 288 258H300C302.209 258 304 259.791 304 262V321H284V262Z" fill="url(#paint5_linear_1_24)"/>
<g clip-path="url(#clip1_1_24)">
<path d="M402.384 252.028C402.872 250.975 402.921 249.772 402.521 248.682C402.122 247.593 401.306 246.707 400.253 246.219L384.665 238.999C384.329 238.844 384.046 238.594 383.853 238.278L382.493 236.047C382.042 235.309 381.382 234.721 380.596 234.359L375.217 231.867C374.164 231.379 372.96 231.33 371.871 231.729C370.782 232.129 369.896 232.945 369.408 233.998L367.832 237.4C367.762 237.551 367.755 237.723 367.812 237.878C367.869 238.034 367.986 238.161 368.136 238.23L401.029 253.467C401.179 253.536 401.351 253.543 401.507 253.486C401.662 253.429 401.789 253.313 401.859 253.162L402.384 252.028ZM360.476 253.279C359.989 254.332 359.939 255.536 360.339 256.625C360.738 257.714 361.554 258.6 362.607 259.088L388.694 271.172C389.747 271.66 390.951 271.709 392.04 271.31C393.129 270.91 394.015 270.094 394.503 269.041L400.282 256.565C400.352 256.414 400.359 256.243 400.302 256.087C400.245 255.931 400.128 255.805 399.978 255.735L367.085 240.499C366.935 240.429 366.763 240.422 366.608 240.479C366.452 240.536 366.325 240.653 366.256 240.803L360.476 253.279Z" fill="#9955FF"/>
</g>
<defs>
<filter id="filter0_d_1_24" x="456" y="211" width="151" height="151" filterUnits="userSpaceOnUse" color-interpolation-filters="sRGB">
<feFlood flood-opacity="0" result="BackgroundImageFix"/>
<feColorMatrix in="SourceAlpha" type="matrix" values="0 0 0 0 0 0 0 0 0 0 0 0 0 0 0 0 0 0 127 0" result="hardAlpha"/>
<feMorphology radius="20" operator="dilate" in="SourceAlpha" result="effect1_dropShadow_1_24"/>
<feOffset/>
<feGaussianBlur stdDeviation="25"/>
<feComposite in2="hardAlpha" operator="out"/>
<feColorMatrix type="matrix" values="0 0 0 0 0.6 0 0 0 0 0.333333 0 0 0 0 1 0 0 0 0.4 0"/>
<feBlend mode="normal" in2="BackgroundImageFix" result="effect1_dropShadow_1_24"/>
<feBlend mode="normal" in="SourceGraphic" in2="effect1_dropShadow_1_24" result="shape"/>
</filter>
<filter id="filter1_i_1_24" x="178" y="43" width="426" height="426" filterUnits="userSpaceOnUse" color-interpolation-filters="sRGB">
<feFlood flood-opacity="0" result="BackgroundImageFix"/>
<feBlend mode="normal" in="SourceGraphic" in2="BackgroundImageFix" result="shape"/>
<feColorMatrix in="SourceAlpha" type="matrix" values="0 0 0 0 0 0 0 0 0 0 0 0 0 0 0 0 0 0 127 0" result="hardAlpha"/>
<feOffset/>
<feGaussianBlur stdDeviation="50"/>
<feComposite in2="hardAlpha" operator="arithmetic" k2="-1" k3="1"/>
<feColorMatrix type="matrix" values="0 0 0 0 0.6 0 0 0 0 0.333333 0 0 0 0 1 0 0 0 0.2 0"/>
<feBlend mode="normal" in2="shape" result="effect1_innerShadow_1_24"/>
</filter>
<filter id="filter2_i_1_24" x="245" y="110" width="292" height="296" filterUnits="userSpaceOnUse" color-interpolation-filters="sRGB">
<feFlood flood-opacity="0" result="BackgroundImageFix"/>
<feBlend mode="normal" in="SourceGraphic" in2="BackgroundImageFix" result="shape"/>
<feColorMatrix in="SourceAlpha" type="matrix" values="0 0 0 0 0 0 0 0 0 0 0 0 0 0 0 0 0 0 127 0" result="hardAlpha"/>
<feOffset dy="4"/>
<feGaussianBlur stdDeviation="20"/>
<feComposite in2="hardAlpha" operator="arithmetic" k2="-1" k3="1"/>
<feColorMatrix type="matrix" values="0 0 0 0 0.6 0 0 0 0 0.333333 0 0 0 0 1 0 0 0 0.2 0"/>
<feBlend mode="normal" in2="shape" result="effect1_innerShadow_1_24"/>
</filter>
<filter id="filter3_d_1_24" x="405.089" y="70.6565" width="162.864" height="163.025" filterUnits="userSpaceOnUse" color-interpolation-filters="sRGB">
<feFlood flood-opacity="0" result="BackgroundImageFix"/>
<feColorMatrix in="SourceAlpha" type="matrix" values="0 0 0 0 0 0 0 0 0 0 0 0 0 0 0 0 0 0 127 0" result="hardAlpha"/>
<feOffset dy="4"/>
<feGaussianBlur stdDeviation="30"/>
<feComposite in2="hardAlpha" operator="out"/>
<feColorMatrix type="matrix" values="0 0 0 0 0.0622222 0 0 0 0 0.126933 0 0 0 0 0.466667 0 0 0 1 0"/>
<feBlend mode="normal" in2="BackgroundImageFix" result="effect1_dropShadow_1_24"/>
<feBlend mode="normal" in="SourceGraphic" in2="effect1_dropShadow_1_24" result="shape"/>
</filter>
<linearGradient id="paint0_linear_1_24" x1="54" y1="244" x2="54" y2="321" gradientUnits="userSpaceOnUse">
<stop offset="0.0260417" stop-color="#D561FE"/>
<stop offset="1" stop-color="#53BAF4"/>
</linearGradient>
<linearGradient id="paint1_linear_1_24" x1="198" y1="289" x2="198" y2="321" gradientUnits="userSpaceOnUse">
<stop offset="0.0260417" stop-color="#D561FE"/>
<stop offset="1" stop-color="#53BAF4"/>
</linearGradient>
<linearGradient id="paint2_linear_1_24" x1="102" y1="268" x2="102" y2="321" gradientUnits="userSpaceOnUse">
<stop offset="0.0260417" stop-color="#D561FE"/>
<stop offset="1" stop-color="#53BAF4"/>
</linearGradient>
<linearGradient id="paint3_linear_1_24" x1="246" y1="229" x2="246" y2="321" gradientUnits="userSpaceOnUse">
<stop offset="0.0260417" stop-color="#D561FE"/>
<stop offset="1" stop-color="#53BAF4"/>
</linearGradient>
<linearGradient id="paint4_linear_1_24" x1="150" y1="216" x2="150" y2="321" gradientUnits="userSpaceOnUse">
<stop offset="0.0260417" stop-color="#D561FE"/>
<stop offset="1" stop-color="#53BAF4"/>
</linearGradient>
<linearGradient id="paint5_linear_1_24" x1="294" y1="258" x2="294" y2="321" gradientUnits="userSpaceOnUse">
<stop offset="0.0260417" stop-color="#D561FE"/>
<stop offset="1" stop-color="#53BAF4"/>
</linearGradient>
<clipPath id="clip0_1_24">
<rect width="24" height="24" fill="white" transform="translate(451 373.722) rotate(-26.5365)"/>
</clipPath>
<clipPath id="clip1_1_24">
<rect width="40" height="40" fill="white" transform="translate(371.813 225) rotate(24.8545)"/>
</clipPath>
</defs>
</svg>
