<svg width="40" height="40" viewBox="0 0 40 40" fill="none" xmlns="http://www.w3.org/2000/svg">
<path opacity="0.99" d="M37.9982 8.4747C36.6499 9.07109 35.2201 9.46278 33.7561 9.63678C35.2992 8.71388 36.4542 7.26142 37.0057 5.55005C35.5575 6.4119 33.9698 7.0159 32.315 7.34263C31.2034 6.15331 29.73 5.36454 28.1239 5.09896C26.5178 4.83338 24.869 5.10586 23.4338 5.87404C21.9985 6.64223 20.8572 7.86307 20.1874 9.34678C19.5176 10.8305 19.3567 12.4939 19.7298 14.0785C16.793 13.9313 13.9199 13.1681 11.2972 11.8385C8.67449 10.5089 6.3607 8.64256 4.50608 6.36068C3.84961 7.48825 3.50463 8.77003 3.50648 10.0748C3.50648 12.6356 4.80985 14.898 6.7914 16.2225C5.61874 16.1856 4.47188 15.8689 3.44643 15.2989V15.3907C3.44678 17.0962 4.03696 18.7491 5.11688 20.0692C6.19681 21.3892 7.70003 22.2952 9.37166 22.6334C8.28307 22.9284 7.14163 22.9719 6.03375 22.7606C6.50506 24.2286 7.42368 25.5125 8.66097 26.4325C9.89827 27.3525 11.3923 27.8625 12.9339 27.8911C11.4018 29.0944 9.64749 29.9839 7.77137 30.5088C5.89526 31.0336 3.93409 31.1835 2 30.95C5.37623 33.1213 9.30649 34.274 13.3206 34.2702C26.9072 34.2702 34.3371 23.0149 34.3371 13.2537C34.3371 12.9358 34.3283 12.6144 34.3142 12.3C35.7604 11.2548 37.0085 9.96001 38 8.47646L37.9982 8.4747Z" fill="#999999"/>
</svg>
